<svg xmlns="http://www.w3.org/2000/svg" viewBox="0 0 32 24"><mask id="a" fill="#fff"><path fill-rule="evenodd" d="M0 0h32v24H0z"/></mask><g fill="none" fill-rule="evenodd" mask="url(#a)"><path fill="#67bd38" d="M22 0h10v24H22z"/><path fill="#d51700" d="M10 0h12v24H10z"/><path fill="#272727" d="M0 0h10v24H0z"/><g fill="#f7fcff"><path fill-rule="nonzero" d="M12.488 7.977l.346.217c-.577.97-.964 1.86-1.165 2.669l.012.01c.078.074.129.14.18.23.157.27.289.534.395.789l-.46.196a6.105 6.105 0 00-.254-.53c-.048.393-.044.765.009 1.115a.92.92 0 01.236.056c.294.107.564.224.81.35l-.227.446a6.344 6.344 0 00-.687-.302l.002.014c.214.647.54 1.241.982 1.784a.92.92 0 01.208-.021c.313 0 .607.018.881.053l-.06.496a6.108 6.108 0 00-.589-.045c.394.397.86.763 1.394 1.098l-.211.355a8.049 8.049 0 01-1.694-1.39c-.06.023-.134.055-.228.096l-.036.015c.406.426.887.817 1.441 1.175l-.215.353a8.15 8.15 0 01-1.645-1.376c-.217.055-.4.054-.616-.009l.134-.48c.032.01.064.016.096.02a6.197 6.197 0 01-.956-1.841 3.981 3.981 0 01-.097-.36 1.055 1.055 0 01-.45-.2l.289-.405c.025.018.05.035.077.049-.053-.613.019-1.274.213-1.983a1.074 1.074 0 01-.242-.474l.425-.11c.229-.648.553-1.334.97-2.058l.35.213c-.456.788-.794 1.525-1.014 2.21.038.036.083.074.135.114l.094.073c.222-.807.611-1.677 1.167-2.612zM11.24 13.17h-.032l-.126.008a5.215 5.215 0 01-.187.009 5.82 5.82 0 001.088 2.095c.058-.021.122-.048.193-.08l.083-.035a5.99 5.99 0 01-.959-1.795zm-.435-.48l.117-.002.139-.007.079-.005a4.855 4.855 0 01.057-1.555 3.428 3.428 0 00-.164-.126l-.09-.069c-.155.636-.2 1.224-.138 1.764zM19.499 7.977l-.346.217c.577.97.964 1.86 1.164 2.669l-.012.01a.939.939 0 00-.18.23 6.92 6.92 0 00-.395.789l.46.196c.072-.172.157-.35.254-.53.048.393.045.765-.008 1.115a.92.92 0 00-.236.056 6.92 6.92 0 00-.81.35l.227.446c.208-.108.438-.208.687-.302l-.002.014a5.592 5.592 0 01-.983 1.784.92.92 0 00-.208-.021 6.92 6.92 0 00-.88.053l.06.496c.185-.024.382-.039.589-.045a7.72 7.72 0 01-1.394 1.098l.211.355a8.049 8.049 0 001.693-1.39c.06.023.134.055.229.096l.035.015a7.872 7.872 0 01-1.44 1.175l.215.353a8.15 8.15 0 001.645-1.376c.217.055.4.054.615-.009l-.133-.48a.673.673 0 01-.097.02 6.197 6.197 0 00.957-1.841c.038-.118.07-.237.097-.36.165-.03.305-.092.45-.2l-.29-.405a.679.679 0 01-.076.049c.052-.613-.02-1.274-.213-1.983.121-.14.196-.286.241-.474l-.424-.11a12.428 12.428 0 00-.971-2.058l-.349.213c.456.788.793 1.525 1.014 2.21a1.951 1.951 0 01-.135.114l-.095.073c-.221-.807-.61-1.677-1.166-2.612zm1.247 5.193h.031l.126.008.188.009a5.82 5.82 0 01-1.088 2.095 3.371 3.371 0 01-.194-.08l-.083-.035a5.99 5.99 0 00.96-1.795zm.435-.48l-.118-.002a4.906 4.906 0 01-.138-.007l-.08-.005a4.855 4.855 0 00-.056-1.555c.042-.036.097-.077.164-.126l.09-.069c.155.636.2 1.224.138 1.764z"/><path d="M14.253 16.264l-1.116 1.105c.641.393 1.567.59 2.777.59s2.166-.197 2.87-.59l-.848-1.105c-.771.299-1.43.448-1.975.448s-1.116-.15-1.708-.448z"/></g><path stroke="#c00001" stroke-width=".5" d="M14.276 16.969c.63.149 1.187.223 1.67.223.483 0 1.04-.074 1.67-.223"/><g fill="#f7fcff" fill-rule="nonzero"><path d="M14.724 8.868v1.585h.051l.265-.203h1.86l.313.203h.156V8.868h.487v1.585h.171v.27h-.17v2.873c0 .17.18.46.557.836l.43.43h-5.978l.993-.477c.187-.09.32-.348.378-.804v-2.858h-.426v-.27h.426V8.868zm2.645 1.855h-2.646v2.889a2.307 2.307 0 01-.2.75h3.17c-.214-.282-.323-.534-.323-.766zM16.081 12l1.054 2.083h-2.108V12zM16 8.667c.493 0 .892.354.892.791 0 .438-.4.792-.892.792s-.892-.354-.892-.792c0-.437.4-.791.892-.791zM16.481 6.395a.062.062 0 00-.001-.006zm-.238.321c-.355.382-.725.382-1.028.144a.83.83 0 01-.157-.16l-.006-.009a.435.435 0 00-.061-.072c-.077-.075-.115-.08-.18.002a.534.534 0 00-.044.065c-.167.29-.301.454-.46.524-.215.094-.418-.008-.598-.27-.092-.133-.212-.164-.276-.11-.089.073-.094.287.062.61.174.358.207.604.013.732-.16.107-.404.047-.778-.143l.144-.299c.15.076.271.126.36.148.036.008.062.012.078.013l-.002-.01a1.082 1.082 0 00-.105-.292c-.217-.447-.206-.827.024-1.019.223-.185.553-.1.744.177.103.149.159.177.207.156.074-.032.175-.157.308-.387a.865.865 0 01.072-.106c.205-.258.456-.226.654-.033a.758.758 0 01.106.128.593.593 0 00.092.09c.18.14.364.14.596-.109.303-.326.48-.447.65-.363.093.046.132.13.148.245.008.06.01.11.01.233 0 .09-.026.187-.074.316a.05.05 0 00.012-.008c.244-.184.29-.336.235-.467a.609.609 0 01-.092-.105.204.204 0 01-.02-.041.163.163 0 01.012-.146.156.156 0 01.179-.08.173.173 0 01.054.024.442.442 0 01.135.156.741.741 0 01.145.361c.007.043.01.079.014.124a1.234 1.234 0 00.062-.268l.005-.03.004-.019a.157.157 0 01.024-.056c.013-.019.013-.019.045-.046.05-.028.05-.028.126-.023.1.059.1.059.113.095.008.02.01.032.013.05a3.908 3.908 0 01.006.086l.003.07c.001.028.002.056.001.086 0 .064-.003.124-.01.2.082-.08.206-.06.345.017a.512.512 0 01.28.428.876.876 0 00.149-.276c.045-.121.128-.444.122-.428a.199.199 0 01.03-.06.154.154 0 01.126-.068.157.157 0 01.15.087c.02.038.023.06.026.122.003.053.003.133.003.342 0 .412.061.712.14.835h.192c0 .328-.278.474-.464.183-.08-.127-.14-.33-.17-.594a.635.635 0 01-.193.19c-.157.095-.241.125-.342.06-.064-.041-.088-.1-.093-.17a.632.632 0 010-.1.43.43 0 00-.007-.142.163.163 0 00-.023-.05.532.532 0 01-.006.225.268.268 0 01-.273.2c-.188 0-.308-.11-.34-.29a.718.718 0 01-.01-.18c-.115.065-.235.058-.306-.072a.29.29 0 01-.035-.105 1.998 1.998 0 01-.464.343c-.127.062-.243.068-.313-.063-.041-.077-.031-.144.004-.25.009-.028.02-.058.035-.096l.04-.1.028-.07a.673.673 0 00.052-.197l-.001-.122a2.24 2.24 0 00-.247.237zm1.813.367a.089.089 0 000-.004zm.954-.348a.446.446 0 00.001-.003zm-.298-.028a.269.269 0 000-.007zm-.914.641a.324.324 0 01.003 0zm-.626-1.189a.339.339 0 00-.001 0z"/><path d="M12.993 10.668l1.533 2.251-.199.144-.896-1.315c-.125.052-.224.16-.295.326-.104.241-.175.574-.215.998l-.572-.368c.127-.297.191-.628.191-.992 0-.317.151-.52.454-.606l-.2-.295zM19.071 10.668l-1.533 2.251.199.144.896-1.315c.125.052.224.16.295.326.104.241.176.574.215.998l.573-.368a2.494 2.494 0 01-.192-.992c0-.317-.151-.52-.454-.606l.2-.295z"/></g></g></svg>
