<svg xmlns="http://www.w3.org/2000/svg" xmlns:xlink="http://www.w3.org/1999/xlink" viewBox="0 0 32 24"><defs><mask id="mantine-7ddxe7jfr" fill="#fff"><path fill-rule="evenodd" d="M0 0h32v24H0z"/></mask><mask id="mantine-pf1tkzmgn" fill="#fff"><use fill-rule="evenodd" xlink:href="#mantine-n26x77uy7"/></mask><path id="mantine-n26x77uy7" d="M0 0h32v24H0z"/></defs><g fill="none" fill-rule="evenodd"><g mask="url(#mantine-7ddxe7jfr)"><use fill="#f7fcff" xlink:href="#mantine-n26x77uy7"/><path fill="#58a5ff" d="M0 0h32v7H0zm0 17h32v7H0z" mask="url(#mantine-pf1tkzmgn)"/></g><g fill="#ffc125" stroke="#984111" stroke-width=".15" transform="translate(11 7)"><path d="M5.513 6.762c.192.311.133 1.146.133 1.558 0 .189.037.197.127.406a29.877 29.877 0 00.108.25c.09.223.241.508.078.836a.134.134 0 01-.178.06.13.13 0 01-.061-.176c.133-.267-.03-.48-.087-.623a29.179 29.179 0 01-.106-.244c-.102-.239-.147-.28-.147-.509 0-.367.003-.916-.16-1.181-.039-.062-.062-.265 0-.303.063-.038.255-.136.293-.074zm-.718.064c.056.36-.325 1.107-.486 1.486-.073.173-.043.196-.042.423a29.878 29.878 0 00.002.272c-.004.241.024.562-.255.8a.133.133 0 01-.175-.2c.227-.194.161-.453.164-.607v-.18L4 8.734c-.001-.26-.027-.315.063-.526.143-.338.361-.842.314-1.15-.011-.072.047-.268.12-.279.072-.01.286-.025.297.047zm1.383-.397c.294.216.552 1.012.707 1.395.07.174.107.169.269.328l.104.101.09.09c.167.174.414.381.386.747a.134.134 0 01-.143.122.13.13 0 01-.123-.14c.023-.298-.207-.435-.314-.546l-.084-.084-.105-.102c-.185-.183-.242-.204-.328-.416-.137-.341-.34-.851-.59-1.036-.06-.043-.157-.223-.113-.281.044-.059.185-.221.244-.178zm-2.352.02c.072.017.276.083.26.154C4 6.96 3.368 7.508 3.077 7.8c-.133.133-.113.165-.197.376a29.877 29.877 0 00-.1.253c-.095.222-.19.53-.537.647a.134.134 0 01-.168-.083.13.13 0 01.081-.168c.283-.095.32-.36.38-.502l.044-.11.053-.137c.096-.242.093-.302.255-.464.26-.26.65-.645.722-.949.017-.07.144-.231.215-.214zm2.814-.56c.355.084.904.716 1.196 1.008.133.133.165.113.376.197a29.876 29.876 0 00.253.1c.222.094.53.189.647.536a.134.134 0 01-.084.169.13.13 0 01-.167-.082c-.095-.283-.36-.319-.502-.379a3.999 3.999 0 00-.11-.045l-.057-.022-.08-.03c-.242-.097-.302-.094-.465-.256-.26-.26-.645-.65-.948-.722-.071-.017-.231-.144-.214-.215.018-.071.084-.276.155-.259zm-3.3 0c.059.042.223.18.181.24-.21.298-1.002.57-1.382.731-.173.074-.167.11-.324.275a29.878 29.878 0 00-.187.197c-.17.17-.374.421-.74.4a.134.134 0 01-.125-.142.13.13 0 01.139-.125c.298.018.43-.214.54-.323l.082-.086.1-.106c.18-.188.2-.246.411-.335.338-.144.845-.355 1.025-.61.042-.059.22-.16.28-.117zm5.016-.208c.173.074.196.043.423.042l.145-.002h.127c.241.005.562-.023.8.255.048.055.041.14-.014.188s-.139.042-.186-.013c-.194-.227-.454-.16-.607-.164h-.12l-.146.002c-.26.002-.315.027-.526-.062-.338-.144-.842-.362-1.15-.315-.072.011-.269-.046-.279-.119-.01-.073-.025-.287.047-.298.36-.055 1.106.325 1.486.486zM3.12 5.212c.038.063.135.255.073.293-.31.192-1.145.133-1.557.133-.189 0-.197.037-.406.127a29.876 29.876 0 00-.25.108c-.223.09-.508.241-.836.078-.065-.032-.092-.112-.06-.178s.11-.094.176-.061c.267.133.48-.03.623-.087a29.178 29.178 0 01.244-.106c.238-.102.28-.147.509-.147.367 0 .916.003 1.18-.16.063-.039.266-.062.304 0zM9.856 4.05c.065.032.092.112.06.178s-.11.094-.176.061c-.267-.133-.48.03-.623.087a29.178 29.178 0 01-.244.106c-.238.102-.28.147-.509.147-.367 0-.916-.003-1.18.16-.063.039-.266.062-.304 0-.038-.063-.135-.255-.073-.293.31-.192 1.145-.133 1.557-.133.189 0 .197-.037.406-.127a29.876 29.876 0 00.25-.108c.223-.09.508-.241.836-.078zm-9.507-.2c.194.227.454.16.607.164h.12l.146-.002c.26-.002.315-.027.526.062.338.144.842.362 1.15.315.072-.011.269.046.279.119.01.073.025.287-.047.298-.36.055-1.106-.325-1.486-.486-.173-.074-.196-.043-.423-.042l-.126.002H.949c-.241-.005-.562.023-.8-.255-.048-.055-.041-.14.014-.188s.139-.042.186.013zm.79-1.666c.095.283.36.319.502.379l.11.045.017.006.086.033c.014.006.027.01.034.014.242.096.302.093.465.255.26.26.645.65.948.722.071.017.231.144.214.215-.018.071-.084.276-.155.259-.355-.084-.904-.716-1.196-1.008-.133-.133-.165-.113-.376-.197a29.876 29.876 0 00-.253-.1c-.222-.094-.53-.189-.647-.536A.134.134 0 01.972 2.1a.13.13 0 01.167.082zm7.988.108c.073.005.128.07.123.143a.13.13 0 01-.14.122c-.298-.023-.435.207-.546.314a29.179 29.179 0 01-.187.19c-.182.184-.203.241-.416.327-.34.138-.85.34-1.035.59-.043.06-.223.158-.281.113s-.221-.184-.178-.243c.216-.294 1.012-.553 1.394-.707.175-.07.17-.108.33-.27l.1-.103.09-.09c.174-.168.381-.415.746-.386zM2.41.788a.13.13 0 01.123.14c-.023.298.207.435.314.546a29.178 29.178 0 01.19.187c.184.182.24.203.327.415.137.341.34.851.59 1.036.06.043.157.223.113.281-.044.059-.185.221-.244.178-.294-.216-.552-1.012-.707-1.395-.07-.174-.107-.169-.269-.328a29.877 29.877 0 00-.194-.191c-.167-.174-.414-.381-.386-.747A.134.134 0 012.41.788zm5.515.22a.13.13 0 01-.081.168c-.283.095-.32.36-.38.502a29.179 29.179 0 01-.098.247c-.095.242-.092.302-.254.464-.26.26-.65.645-.722.949-.017.07-.144.231-.215.214-.072-.018-.276-.084-.26-.155C6 3.04 6.632 2.492 6.923 2.2c.133-.133.113-.165.197-.376a29.877 29.877 0 00.1-.253c.095-.222.19-.53.537-.647a.134.134 0 01.168.083zM4.22.128a.13.13 0 01.061.176c-.133.267.03.48.087.623l.047.11.059.134c.102.239.147.28.147.509 0 .367-.003.916.16 1.181.039.062.062.265 0 .303-.063.038-.255.136-.293.074-.192-.311-.133-1.146-.133-1.558 0-.189-.037-.197-.127-.406a29.877 29.877 0 00-.108-.25C4.03.801 3.878.516 4.041.188a.134.134 0 01.178-.06zm1.954.079a.13.13 0 01-.012.186C5.934.587 6 .846 5.997 1v.12l.002.146c.001.26.027.315-.063.526-.143.338-.361.842-.314 1.15.011.072-.047.268-.12.279-.072.01-.286.025-.297-.047-.056-.36.325-1.107.486-1.486.073-.173.043-.196.042-.423l-.002-.126V.993c.004-.241-.024-.562.255-.8a.134.134 0 01.187.014z"/><path d="M5.333 6.71L5.12 9.759a.12.12 0 01-.238 0L4.667 6.71zm.658-.254l.943 2.906a.12.12 0 01-.22.089l-1.34-2.745zm-2.01-.017l.614.26-1.388 2.722a.12.12 0 01-.219-.093zm2.524-.459l1.962 2.341a.12.12 0 01-.17.165L6.024 6.444zm-3.047-.052l.464.48L1.58 8.37a.12.12 0 01-.165-.17zm3.349-.607l2.72 1.388a.12.12 0 01-.092.22l-2.889-.994zm-3.62-.03l.25.618L.53 6.85a.12.12 0 01-.09-.22zM6.82 4.6l3.047.214a.12.12 0 010 .238l-3.047.215zm-3.642 0v.667L.132 5.053a.12.12 0 010-.238zm6.437-1.515a.12.12 0 01-.058.152l-2.745 1.34-.25-.618 2.906-.943a.12.12 0 01.147.069zM.566 2.94l2.888.993-.26.614L.471 3.159a.12.12 0 01.093-.219zm8.016-1.433a.12.12 0 01.002.162L6.542 3.94l-.464-.48L8.42 1.498a.12.12 0 01.163.009zm-6.878-.125l2.27 2.043-.479.463-1.962-2.34a.12.12 0 01.17-.166zm5.241-.99a.12.12 0 01.067.149l-.994 2.888-.613-.26L6.793.448a.12.12 0 01.152-.056zM3.287.418l1.34 2.744-.618.25L3.066.507a.12.12 0 01.22-.09zM5 0a.12.12 0 01.119.11l.214 3.048h-.666L4.88.11A.12.12 0 015 0z"/><ellipse cx="5" cy="4.934" rx="1.933" ry="1.908"/></g><path fill="#984111" fill-rule="nonzero" d="M15.813 11.436c-.02-.012-.104-.068-.125-.08a.806.806 0 00-.186-.094.275.275 0 00-.08-.014c-.119 0-.285.073-.495.223l-.078-.107c.23-.164.42-.248.572-.248.04 0 .08.007.122.02a.924.924 0 01.217.108l.124.081.048.027c.16 0 .169.57.056.744a.498.498 0 01-.116.124l-.087.064c-.04.03-.052.048-.052.07 0 .003.048.015.155.01l.073-.005c.076-.006.086-.006.11-.006v.131c-.019 0-.029 0-.1.006a2.577 2.577 0 01-.077.005c-.187.009-.294-.017-.294-.142 0-.071.035-.12.103-.173.011-.009.07-.05.086-.063a.37.37 0 00.087-.092c.034-.053.056-.192.053-.34a.919.919 0 00-.026-.205.325.325 0 01-.09-.044z"/><path fill="#984111" fill-rule="nonzero" d="M16.193 11.474a.053.053 0 01.001-.003zm.087-.038c.02-.012.105-.068.126-.08a.806.806 0 01.185-.094.275.275 0 01.082-.014c.117 0 .284.073.494.223l.078-.107c-.231-.164-.42-.248-.572-.248a.41.41 0 00-.122.02.924.924 0 00-.217.108l-.125.081c-.029.018-.048.027-.047.027-.16 0-.17.57-.057.744.03.047.068.085.117.124l.087.064c.039.03.051.048.051.07 0 .003-.047.015-.154.01a2.458 2.458 0 01-.073-.005 1.286 1.286 0 00-.11-.006v.131c.019 0 .029 0 .1.006l.076.005c.188.009.295-.017.295-.142 0-.071-.035-.12-.103-.173-.011-.009-.07-.05-.086-.063a.37.37 0 01-.087-.092c-.035-.053-.056-.192-.053-.34a.919.919 0 01.026-.205.325.325 0 00.09-.044z"/><path stroke="#984111" stroke-width=".15" d="M16.016 12.974c.105 0 .2-.06.287-.186a.546.546 0 00-.287-.074.7.7 0 00-.317.076c.106.124.212.184.317.184zm-.453-.26a.848.848 0 01.453-.131c.161 0 .302.045.419.136l.046.035-.03.05c-.118.198-.264.301-.435.301-.17 0-.326-.1-.471-.296l-.043-.057zm1.104-1.24c.184 0 .333.071.333.16s-.15.16-.333.16c-.184 0-.334-.072-.334-.16s.15-.16.334-.16zm-1.334 0c.184 0 .334.071.334.16s-.15.16-.334.16-.333-.072-.333-.16.15-.16.333-.16z"/></g></svg>