<svg xmlns="http://www.w3.org/2000/svg" xmlns:xlink="http://www.w3.org/1999/xlink" viewBox="0 0 32 24"><defs><mask id="mantine-b1lcujip7" fill="#fff"><path fill-rule="evenodd" d="M0 0h32v24H0z"/></mask><mask id="mantine-f7vynaiiq" fill="#fff"><use fill-rule="evenodd" xlink:href="#mantine-h12wkmuj9"/></mask><path id="mantine-h12wkmuj9" d="M0 0h32v24H0z"/></defs><g fill="none" fill-rule="evenodd" mask="url(#mantine-b1lcujip7)"><use fill="#ffd221" xlink:href="#mantine-h12wkmuj9"/><path fill="#313131" fill-rule="nonzero" d="M-3.067 10.615l2.008-4.579 34.827 15.272-2.008 4.58z" mask="url(#mantine-f7vynaiiq)"/><path fill="#faf9f9" fill-rule="nonzero" d="M-3.017 5.57L-1.01.99l36.558 16.023-2.007 4.58z" mask="url(#mantine-f7vynaiiq)"/><g mask="url(#mantine-f7vynaiiq)"><g fill="#cf1225"><path d="M6.15 9.48c.967.034 1.446.364 1.435.988 0 .695 1.607 1.325 1.607 1.723 0 .265.1 1.735.3 4.41-.14.243-.544.365-1.212.365-.668 0-.985-.193-.95-.577.406-.497.406-1.828 0-3.992-.945-1.16-1.339-2.133-1.18-2.918zm19.701 0c.158.784-.236 1.757-1.181 2.917-.405 2.164-.405 3.495 0 3.992.035.384-.281.577-.95.577s-1.072-.122-1.211-.365c.2-2.675.3-4.145.3-4.41 0-.398 1.607-1.028 1.607-1.723-.011-.624.467-.954 1.435-.989zm-9.582-3.005v.922c.248-.267.652-.456 1.212-.567.839-.166 1.787.818 2.524 1.121.491.203.851.203 1.08 0 0 .172-.182.39-.548.653a.785.785 0 01-.592.152l-.04-.01c.127.121.105.226-.059.318l-.068.034c-.4.178-.936.013-1.608-.494l.014.01.13.097c.687.52.902.795.646.827l-.058.003c-.361 0-.835-.237-1.421-.71.71.682.875 1.076.492 1.182-.355.099-.777-.402-.988-.72l-.02-.031v.022c-.032.122-.255.156-.304.32l-.01.068c0 .3-.133.158-.133.341v.233l.133.196c0 .204-.044.386-.133.547-.133.243 0 .434.133.895.089.307.044.724-.133 1.249h.133c-.089.064-.133.226-.133.485 0 .388.133.57.38 1.095.165.35.083.748-.247 1.193.553-.243.774-.243.663 0-.11.242-.545.48-1.305.715l.157-.05.001.05-.079-.025-.079.025v-.05l-.04-.014c-.637-.214-1.006-.43-1.107-.651-.11-.243.11-.243.664 0-.33-.445-.413-.843-.248-1.193.248-.524.38-.707.38-1.095 0-.259-.044-.42-.132-.485h.132c-.177-.525-.221-.942-.132-1.249.132-.461.265-.652.132-.895a1.119 1.119 0 01-.132-.547l.132-.196v-.233c0-.183-.132-.04-.132-.34 0-.226-.279-.251-.314-.389l-.002-.02-.018.03c-.212.317-.634.818-.989.72-.383-.107-.218-.501.493-1.184-.586.474-1.06.711-1.422.711-.34 0-.144-.276.589-.83l.127-.096-.149.109c-.595.412-1.076.537-1.443.374-.224-.1-.268-.216-.131-.347l.004-.004-.04.009a.785.785 0 01-.592-.152c-.365-.264-.548-.481-.548-.653.23.203.59.203 1.08 0 .737-.303 1.686-1.287 2.525-1.12.56.11.963.3 1.212.566v-.922zm-.21-3.6l1.128.804-.739.197.739.639-.92-.233v.644h.92l.307 1.512-.356-.252-.356.252-.355-.252-.356.252-.366-.252-.367.252-.366-.252-.367.252.462-1.512h.85V2.875z"/><path d="M11.23 9.578c-.796 1.082-1.15 2.202-1.062 3.358.133 1.735 1.549 5.771 5.748 5.771h.107c4.45 0 5.713-4.45 5.713-6.051 0-1.076-.336-2.102-1.007-3.078.078 1.444.078 2.47 0 3.078-.355 2.75-2.087 4.02-4.735 4.02-2.665 0-4.313-1.318-4.765-4.02-.097-.583-.097-1.609 0-3.078z"/><path d="M9.066 19.751c.144-.413.305-.62.483-.62.266 0-.51-.539 0-.691.51-.152 1.293.607 1.293-.152 0-.76-.663-1.174-.176-1.174.325 0 .657-.048.996-.145 1.382 1.441 2.765 2.162 4.149 2.162 1.383 0 2.907-.672 4.571-2.017.613-.156.92-.112.92.13s-.067.55-.202.917c.43-.085.754-.085.973 0 .218.084.218.33 0 .735v.235c.569-.125.853-.076.853.148 0 .336-.412.144-1.247.24-.834.096-1.151.749-1.675.749-.35 0-.562-.172-.638-.517-1.083.587-2.268.881-3.555.881-1.287 0-2.32-.294-3.097-.88.121.602-.024.839-.435.71-.617-.194-1.248-1.423-1.99-1.183-.493.16-.901.318-1.223.472z"/></g><path fill="#f6e017" fill-rule="nonzero" d="M12.401 15.826h.003-.003zm-.218.215a2.24 2.24 0 01-.121.124.699.699 0 01-.146.11c-.164.086-.278-.01-.324-.21-.03-.13-.04-.297-.04-.575a27.32 27.32 0 01.002-.224.417.417 0 00-.01-.125c-.022 0-.03.004-.187.094-.136.077-.231.115-.338.115-.168 0-.23-.12-.15-.276.057-.113.191-.271.405-.481l.113.122c-.201.197-.326.345-.373.437-.025.048-.034.03.005.03.07 0 .146-.03.259-.094l.065-.038.065-.036a.303.303 0 01.137-.041c.122 0 .172.105.172.293a25.438 25.438 0 010 .224c0 .264.008.423.034.536.026.108.043.123.09.099a.55.55 0 00.11-.085 1.57 1.57 0 00.113-.115c.204-.22.206-.223.274-.254.15-.066.22.056.22.288 0 .366.012.643.047.827a.52.52 0 00.048.158.307.307 0 00.057-.07c.273-.41.877-.469.877-.128 0 .066-.007.083-.098.307-.012.03-.022.053-.03.076a.562.562 0 00-.054.235c.005.038.025.053.1.053.09 0 .165-.074.26-.24l.063-.115c.026-.045.045-.077.065-.105.142-.198.294-.123.435.21.048.111.182.44.206.495.06.14.1.221.137.27.047.062.073.062.165-.017.036-.03.075-.06.12-.09.044-.031.194-.126.22-.144.04-.028.058-.047.063-.048-.006.002-.042-.021-.126-.053-.251-.093-.291-.263-.09-.363.124-.061.344-.101.543-.101.125 0 .187.086.184.212-.001.074-.013.128-.061.308l-.015.056c-.04.158-.052.252-.033.308.018.053.076.073.224.044.237-.047.327-.12.349-.227a.53.53 0 00.008-.115c0-.197.055-.285.264-.285.217 0 .323.096.406.29l.022.052c.033.079.054.115.085.129a1.509 1.509 0 01-.01-.02c-.128-.26-.068-.495.314-.74.146-.093.561-.396.621-.412.099-.026.153.038.17.146.005.033.008.075.01.138l.008.197c.012.3.075.576.146.664.068-.054.118-.18.167-.38.112-.459.271-.892.432-1.163.09-.151.178-.251.269-.292.119-.054.23-.003.304.132.119.216.303.418.437.469.123.047.196-.053.196-.428 0-.42.07-.76.186-1.026.07-.163.144-.267.196-.318l.113.122a.475.475 0 00-.046.058 1.177 1.177 0 00-.114.207c-.106.244-.17.56-.17.957 0 .474-.157.686-.419.585-.177-.068-.386-.297-.521-.543-.037-.066-.061-.077-.096-.061-.053.023-.122.101-.195.226-.15.254-.305.672-.413 1.116-.113.463-.28.658-.451.447-.102-.124-.172-.43-.185-.765 0-.029-.006-.165-.007-.197a1.376 1.376 0 00-.008-.11c-.098.065-.392.278-.544.374-.308.198-.344.338-.254.521l.032.064a.22.22 0 01.026.074c.012.093-.055.134-.152.134-.144 0-.209-.072-.278-.239a4.159 4.159 0 00-.02-.05c-.06-.14-.116-.19-.257-.19-.1 0-.1.001-.1.117a.62.62 0 01-.012.15c-.037.181-.182.299-.478.357-.219.044-.36-.007-.41-.153-.033-.1-.02-.216.03-.407a6.65 6.65 0 01.014-.057c.044-.163.055-.214.056-.267.001-.041.002-.04-.02-.04-.176 0-.373.035-.47.083-.02.01-.027.014-.032.011.01 0 .044.02.105.043.155.058.233.117.235.21 0 .074-.045.124-.136.188-.03.02-.18.116-.221.144a1.27 1.27 0 00-.106.08c-.157.135-.289.136-.4-.009a1.462 1.462 0 01-.158-.306c-.024-.056-.158-.385-.205-.495-.099-.234-.109-.24-.153-.177a.936.936 0 00-.054.089l-.064.115c-.123.215-.234.324-.402.324-.152 0-.246-.071-.262-.198-.011-.086.012-.184.063-.319l.032-.08c.073-.18.085-.212.085-.242 0-.114-.377-.077-.578.224-.087.131-.181.187-.275.123-.064-.043-.1-.134-.127-.275-.036-.198-.05-.482-.05-.859a.617.617 0 00-.009-.123c-.028.018-.065.057-.2.205zm2.881 1.331a.029.029 0 01-.004-.003c.001.007.003.011.005.013zm2.9-.493zm-4.118 2.722v-.006a1.443 1.443 0 00-.053-.242.35.35 0 01.069.343 3.046 3.046 0 01-.016-.095zm-.013.15c-.073.195-.188.26-.317.162a.748.748 0 01-.131-.14c-.005-.006-.105-.139-.137-.179-.112-.139-.208-.226-.313-.27-.178-.076-.17-.073-.22-.097a.675.675 0 01-.325-.297c-.066-.114-.13-.267-.238-.564l.154-.06c.104.288.166.436.225.537.066.115.129.17.254.232.046.022.04.02.213.093.135.058.249.16.376.32.034.041.136.176.139.18a.632.632 0 00.112.122c.012-.007.032-.039.054-.1.05-.135.007-.24-.116-.35-.017-.015-.153-.12-.173-.149-.047-.07-.007-.14.065-.159a.665.665 0 01.157-.011c.265 0 .338.155.387.553v.006c.04.314.078.4.212.4.15 0 .243-.06.403-.232l.035-.037c.205-.218.348-.291.589-.225.192.054.274.148.293.295a.91.91 0 01.005.056c.01.123.032.143.27.143.182 0 .35.01.57.029.012 0 .18.016.222.02.071.005.122.008.162.008.03 0 .051-.001.066-.004.006-.048.035-.082.15-.212l.033-.038a.359.359 0 00.076-.113.52.52 0 00-.178-.018c-.12 0-.18-.015-.19-.1-.009-.07.032-.103.122-.151a3.52 3.52 0 01.516-.198c.218-.07.447-.132.621-.168.094-.02.171-.032.227-.035.106-.006.17.009.17.105 0 .04.112.177.225.24.134.074.229.046.294-.13a1.78 1.78 0 01.49-.688c.105-.085.201-.13.285-.123.112.01.17.106.17.252h-.163c0-.068-.01-.083-.022-.084-.03-.003-.093.026-.168.087-.171.14-.353.39-.439.617-.103.276-.309.337-.526.216a.704.704 0 01-.298-.325 1.475 1.475 0 00-.212.033 6.62 6.62 0 00-.967.292c.117.017.185.06.203.142.017.082-.022.153-.113.26a2.58 2.58 0 01-.035.04c-.08.09-.108.128-.108.13 0 .11-.085.142-.229.142-.045 0-.1-.004-.175-.01l-.222-.02a6.06 6.06 0 00-.556-.028c-.323 0-.418-.085-.434-.298a.782.782 0 00-.004-.047c-.01-.079-.045-.118-.174-.154-.168-.047-.26 0-.428.178l-.035.038c-.188.201-.313.283-.521.283-.235 0-.312-.126-.361-.452a.56.56 0 01-.017.054zm3.017-.27a.04.04 0 00-.003-.001zm1.359-.376zm-1.371.926a.068.068 0 00.003 0z"/></g></g></svg>