<svg xmlns="http://www.w3.org/2000/svg" viewBox="0 0 32 24"><mask id="mantine-g6cf0mm8x" fill="#fff"><path fill-rule="evenodd" d="M0 0h32v24H0z"/></mask><g fill="none" fill-rule="evenodd" mask="url(#mantine-g6cf0mm8x)"><path fill="#ff6230" d="M0 0h32v24H0z"/><path fill="#feca00" d="M0 0v24L32 0z"/><g transform="translate(2 2)"><g fill="#fff"><path stroke="#979797" stroke-width=".15" d="M16.64 12.078c.077.07.184 0 .305 0h.76v.471h-.308l-.049.052.052.081c.108.156.249.297.249.405 0 .214-.486.213-.704.213.12-.188.172-.343.155-.463a.2.2 0 01.001-.087l.072.037c-.252-.126-.22-.1-.267-.04a2.673 2.673 0 01-.423.442c-.057-.38-.045-.623.038-.729l.05-.054c-.215-.127-.422-.299-.442-.34-.022-.046.148-.042.51.012zm5.48-3.337l-.14.264.085-.044c.105.193.16.344.16.473 0 .214-.155.357-.374.357v-.472c-.043 0-.11.062-.11.115 0-.032-.033-.122-.104-.252l.143-.076c-.172-.07-.259-.062-.297-.012a2.673 2.673 0 01-.423.442c-.058-.38-.045-.623.038-.728.223-.285.586-.285 1.021-.067zm-4.812.387l-.205.318c-.547-.365-1.003-.653-1.234-.709l-.047-.007.075-.014c.443-.058.913.08 1.411.412zm.015-.887l-.147.348c-.602-.264-1.102-.468-1.339-.483h-.048l-.084.032c.015-.017.04-.028.074-.031l.01-.001.073-.026c.425-.134.912-.08 1.46.16zm-3.979-1.152l-.078-.044c.452.224.773.659.961 1.306l-.361.11c-.184-.63-.35-1.144-.49-1.335zm-2.528.178l-.089-.014c.502.055.952.354 1.35.897l-.301.228c-.39-.53-.72-.956-.918-1.088zm4.787-2.07l.111.362c-.08.023-.158.046-.234.07l.274.252c-.455.475-.817.875-.912 1.093l-.017.044v-.076c.02-.444.235-.88.645-1.311-.517.155-.926.296-1.092.418l-.036.03.038-.066c.24-.376.648-.648 1.223-.816zm-.391-1.664l-.057.374c-.545-.078-1.364-.067-1.535 0 .655-.307 1.185-.432 1.592-.374zM26.75.01c0 .214-.066.4-.195.604-.063.1-.318.44-.343.476a2.483 2.483 0 00-.255.446c-.12.28-.294.646-.52 1.099.034-.026.07-.057.106-.091.177-.162.395-.244.67-.282.095-.013.158-.018.328-.028.17-.01.243-.02.288-.036.008-.003.007-.002.001.005l-.006.008-.003.006h.483c0 .205-1.337.586-1.428.67-.286.262-.539.406-.769.403l-.051.1.065-.037c.308 0 .403-.036.56-.166a7.21 7.21 0 01.045-.037c.27-.221.554-.315 1.142-.315h1.074c-1.15.353-1.785.578-1.905.676l-.042.035c-.242.2-1.2.239-1.629.239l.476-.273-.516-.317c.467-.902.993-1.4 1.185-1.843.054-.124.467-.571 1.239-1.342zM15.855 2.18c.353 0 .804.13 1.36.385l-.165.341c-.51-.233-.91-.348-1.195-.348a1.7 1.7 0 00-.562.082c-.11.04-.149.079-.149.096 0 .018.02.08.058.186l.072.192.047.122c-.352-.068-.564-.232-.564-.5 0-.376.48-.555 1.098-.555zm2.04-1.3c.12.078.607.44.675.488.112.08.216.148.317.21.253.155.418.298.495.445.102.194.048.388-.136.522l-.233-.302c.038-.027.037-.024.024-.048-.037-.072-.156-.176-.355-.297a4.915 4.915 0 01-.262-.197c.098.18.138.425.12.725l-.388-.023c.032-.496-.098-.69-.404-.69a2.69 2.69 0 00-1.633-.393c.092-.193.354-.25.827-.25.297 0 .428.06.533.21l.004.006c.014.02.013.019.025.024a.738.738 0 00.244.026c.09 0 .174.01.25.03a22.772 22.772 0 01-.269-.211l-.31-.248-.17-.137c.18-.122.376-.064.646.11zm.493-.455c.444 0 .642.133.896.537.037.058.11.101.278.159l.052.016c.12.038.41.132.537.18.289.107.566.238.86.414l-.205.321a4.654 4.654 0 00-.982-.448c.19.157.287.318.284.495l-.387-.006c0-.07-.498-.474-1.498-1.21.167 0 .317.046.814.277a12.23 12.23 0 01-.65-.735z"/><path stroke="#979797" stroke-width=".15" d="M24.233 7.254a.833.833 0 01-.097-.502c.007-.097.06-.441.064-.477.018-.151.023-.282.01-.418-.02-.246-.039-.574-.053-.984a1.42 1.42 0 00-.042.108c-.066.187-.195.338-.385.482-.065.05-.11.08-.232.16-.122.08-.172.118-.2.149-.004.006-.003.004-.002-.003l.001-.014-.359.208c-.082-.142.759-.98.793-1.078.107-.303.238-.512.41-.608l-.002-.091-.034.053c-.229.132-.285.198-.349.355a6.11 6.11 0 01-.019.046c-.112.268-.285.455-.722.707l-.798.46c.713-.737 1.095-1.165 1.145-1.284l.017-.043c.1-.242.796-.68 1.114-.863l-.245.393.51-.002c.015.825-.177 1.396-.142 1.785.01.109-.118.596-.383 1.461z"/><path d="M8.985 15.285c.078.07.185 0 .306 0h.76v.472h-.31l-.047.05.052.083c.108.156.25.297.25.404 0 .215-.487.214-.705.214.12-.189.172-.343.155-.464a.197.197 0 01.001-.087l.072.038c-.252-.127-.22-.1-.267-.04a2.673 2.673 0 01-.423.441c-.057-.38-.044-.622.038-.728l.05-.054c-.215-.127-.422-.3-.442-.34-.022-.046.148-.042.51.011z"/><path stroke="#979797" stroke-width=".1" d="M22.607 4.466c.252.088.501.253.853.562.335.294.514.402.683.423.1.013.018.023.478-.045.23-.033.44-.05.694-.051l-.011.048c.077-.246.077-.392 0-.437a.72.72 0 01-.199-.175c.385-.074.595-.05.63.07.035.12.035.275 0 .463l-.097.018c.145-.005.28-.008.407-.007l-.015.068c.058-.246.058-.392 0-.437a.629.629 0 01-.15-.175c.29-.074.45-.05.476.07s.026.275 0 .463l-.063.015c.278.01.5.036.666.08.363.096.5.3.35.565l-.17-.09c.08-.143.024-.225-.231-.293-.297-.078-.81-.098-1.54-.057a4.45 4.45 0 00-.719.049c.01-.001-.225.035-.282.042a.996.996 0 01-.25.003c-.218-.027-.424-.152-.787-.47-.334-.294-.564-.446-.79-.525-.228-.08-.39-.09-.993-.08a23.56 23.56 0 01-.388.003v-.189c.12 0 .222 0 .385-.003.63-.01.803 0 1.063.092z"/></g><path fill="#979797" fill-rule="nonzero" d="M25.366 3.09a.391.391 0 01-.055.19 1.324 1.324 0 01-.074.116l-.088.118c-.145.196-.209.334-.209.514 0 .19-.105.303-.305.355-.147.039-.292.044-.64.039a10.72 10.72 0 00-.19-.002 1.27 1.27 0 01-.442-.076 5.758 5.758 0 00-.154-.053 2.422 2.422 0 00-.855-.127c-.395 0-.49.166-.3.428.198.272.653.571 1.19.76.53.187.67.469.48.785-.143.24-.486.484-.775.583-.239.08-.408-.05-.51-.331a2.275 2.275 0 01-.11-.727c0-.192-.42-.269-1.21-.271-.128 0-.244 0-.45.003-.213.004-.273.004-.362.004-.427 0-.55-.06-.65-.277a4.502 4.502 0 00-.07-.156 1.46 1.46 0 00-.107-.192c-.115-.173-.317-.146-.54.039-.198.164-.358.416-.358.563 0 .04.008.08.023.121.047.119.16.243.374.414.09.072.195.15.354.267l.46.334c.17.124.548.43.616.476.154.103.308.154.626.207.144.023.325.048.591.08.657.08 1.032.052 1.45-.056l.121-.032.116-.03c.118-.027.218-.04.328-.04.269 0 .408-.106.518-.329l.033-.07.031-.068a.644.644 0 01.077-.134c.038-.048.123-.035.27.025.056.023.12.051.21.094l.242.115c.093.044.171.079.246.11.462.193.747.209.862-.01.096-.182.18-.237.257-.164.051.048.085.136.144.337.074.256.11.348.158.4.088.092.044.226-.1.427l-.071.095c-.182.236-.206.27-.206.319 0 .15-.1.212-1.084.744a.521.521 0 01-.435.018c-.196-.069-.404-.224-.615-.44a3.914 3.914 0 01-.364-.432c-.059.031-.095.065-.135.102a3.53 3.53 0 01-.39.31c-.46.316-.948.49-1.436.445a3.732 3.732 0 01-.958-.23c-.059-.022-.517-.205-.6-.226-.124-.033-.153-.012-.121.109.052.197-.117.737-.545 1.873-.01.03-.022.06-.034.092-.483 1.281-.584 1.57-.584 1.751 0 .404.311.47 1.876.47.396 0 .589-.012.676-.043.062-.021.065-.035.049-.13-.031-.182.014-.316.239-.502.143-.12.307-.193.487-.225.271-.048.56-.003.843.101.07.027.136.055.194.083-.099.061-.23.133-.376.226-.315.2-.594.43-.622.52-.014.046.087.104.274.149.176.042.405.07.585.07.606 0 .806.31.591.91-.99-.323-1.626-.323-1.943.009-.152.16-.127.404.035.8.02.05.042.1.072.17.165.375.2.468.21.6.015.187-.09.284-.335.284-.432 0-.715-.327-.97-.953-.04-.098-.225-.602-.274-.707a.582.582 0 00-.118-.187c-.783-.003-2.126-.411-3.166-.882-.288-.13-.334-.35-.278-.837.043-.36.044-.49-.01-.617-.07-.165-.241-.25-.557-.25-.51 0-.674-.03-2.295-.384-1.212-.264-2.008-.383-2.87-.383-.885 0-1.215.47-1.08 1.209.105.576.514 1.217.735 1.217.13 0 .176-.054.228-.228.099-.329.127-.399.265-.563.138-.163.337-.304.615-.421.507-.215.703-.157.558.092-.113.195-.4.426-.549.426-.044.047-.006.085.052.132l.067.05c.04.03.084.058.127.086l.055.034.991.401-.336 1.793H12.1c-.108 0-.287-.063-.519-.175a8.22 8.22 0 01-.574-.311.78.78 0 00-.1.203c-.1.293-.132.595-.059.876.032.122.083.236.156.342.115.168.369.607.413.653.074.077.147.06.341-.082.15-.111.25-.116.356-.036.03.023.142.127.164.146.149.125.31.19.557.19.254 0 .38.083.407.253.02.123.008.185-.089.597a2.692 2.692 0 00-.093.64c0 .196-.047.278-.138.22-.06-.038-.137-.147-.23-.315a8.601 8.601 0 01-.305-.64c-.066-.015-.097 0-.126.022-.085.066-.137.186-.137.376 0 .622-.05.789-.351.789h-2.09v-1.24c0-.077 0-.097.002-.115.053-.032.111.062.145.1.14.158.356.185.695-.005.348-.195.264-.525-.142-.917-.313-.3-.802-.6-.944-.6-.09 0-.133-.093-.142-.263a3.26 3.26 0 01.033-.534l.025-.19c.062-.452.06-.435.06-.512-.093-.022-.16-.001-.245.035-.164.07-.395.198-.665.367-.527.33-1.135.772-1.497 1.092a2.56 2.56 0 01-.706.45 4.062 4.062 0 01-.7.212c-.474.112-.582.14-.826.223-.766.263-1.22.067-1.22-.327 0-.256.785-.828 1.626-1.248.199-.1.326-.214.558-.472.488-.542.817-.726 1.542-.726.594 0 .965-.3 1.164-.827.136-.363.171-.724.171-1.244 0-.222-.024-.163.536-1.392.096-.212.171-.385.238-.551.192-.48.293-.864.293-1.18 0-.395.234-.614.69-.706.344-.069.675-.069 1.567-.029a26.596 26.596 0 00.894.027h1.896c.087 0 .177.055.3.173.053.048.293.297.364.365.36.346.69.524 1.098.524.219 0 .342-.054.387-.152.038-.083.02-.202-.046-.346a1.722 1.722 0 00-.146-.252 2.814 2.814 0 00-.195-.252c-.03-.052-.033-.064-.037-.077a11.984 11.984 0 00-.213-.611 11.643 11.643 0 00-.658-1.449 7.99 7.99 0 00-.368-.61c-.82-1.229-.433-2.321.832-2.321.408 0 .608-.058.659-.165.037-.08.011-.157-.11-.394a2.233 2.233 0 01-.071-.148.603.603 0 01-.058-.234c0-.313.446-.313 1.322-.023.199.28.856.166 1.978-.341.839-.38 1.19-.417 1.58-.25l.172.079c.262.116.484.169.833.169.535 0 .747.12.89.397l.032.065c.115.232.215.307.529.307.576 0 1.049.086 1.417.258.099.004.144.109.144.304zm-1.94 9.07l.006-.012c-.004-.003-.013-.002-.026 0l.02.012zm.005-.012l.001-.001zm-.09-.029c.052-.02.088-.026.112-.015.034.016.031.052.003.1l-.012.02-.021-.012a1.203 1.203 0 00-.139-.069c.021-.01.04-.017.058-.024zm-.177-.024c-.276-.102-.556-.146-.817-.1a.99.99 0 00-.465.214c-.211.176-.25.293-.222.459.02.115.01.151-.08.183-.095.033-.29.045-.693.045-.854 0-1.197-.013-1.466-.07-.318-.067-.459-.2-.459-.447 0-.19.098-.469.587-1.768l.035-.091c.42-1.116.591-1.663.543-1.846-.041-.158.023-.208.181-.166.086.023.548.206.605.227.333.122.633.2.944.228.475.043.952-.127 1.405-.437a3.482 3.482 0 00.545-.466 2.464 2.464 0 00.126.171c.086.11.18.22.28.322.206.21.409.362.597.427a.473.473 0 00.394-.015c.93-.501 1.06-.582 1.06-.702 0-.066.017-.09.215-.347l.07-.094c.131-.183.17-.3.104-.369-.056-.058-.092-.153-.155-.372-.07-.237-.102-.322-.144-.363-.043-.04-.098-.005-.181.153-.132.25-.44.233-.924.032A6.113 6.113 0 0125 6.792c-.6-.282-.627-.293-.663-.248a.605.605 0 00-.07.124 12.92 12.92 0 00-.065.14c-.118.237-.272.355-.562.355a1.33 1.33 0 00-.317.04 19.615 19.615 0 01-.235.06c-.424.11-.806.138-1.469.058a14.31 14.31 0 01-.593-.08c-.325-.054-.485-.108-.645-.215-.07-.047-.449-.354-.618-.478l-.46-.334a9.72 9.72 0 01-.356-.268c-.219-.175-.338-.305-.388-.433a.377.377 0 01-.027-.138c0-.163.168-.427.376-.6.242-.2.476-.231.612-.027.043.065.078.127.11.197.018.037.066.147.07.157.09.197.196.25.606.25.088 0 .148-.002.36-.005.208-.003.324-.004.453-.003.831.002 1.258.08 1.258.318 0 .242.035.513.107.71.094.261.24.374.448.303.28-.095.612-.333.75-.562.173-.288.048-.539-.455-.716-.546-.193-1.01-.497-1.214-.777-.213-.295-.094-.503.34-.503.378 0 .61.04.871.129l.154.053c.152.051.267.073.426.073l.19.003c.344.005.486 0 .627-.037.18-.048.27-.143.27-.31 0-.192.067-.338.218-.542l.087-.117a1.06 1.06 0 00.072-.111.347.347 0 00.049-.167c0-.176-.037-.257-.102-.257-.372-.173-.839-.258-1.411-.258-.334 0-.45-.087-.573-.334l-.032-.064c-.134-.26-.329-.371-.846-.371-.356 0-.586-.055-.853-.173l-.172-.078c-.375-.161-.713-.126-1.54.248-1.137.515-1.809.633-2.021.341-.839-.276-1.25-.276-1.25-.02a.56.56 0 00.053.217c.018.042.037.081.07.145.13.254.158.335.11.435-.06.13-.276.192-.702.192-1.221 0-1.593 1.048-.791 2.248.128.191.25.396.37.614a11.689 11.689 0 01.83 1.934c.018.05.032.095.044.134.017.047.022.053.028.06a2.646 2.646 0 01.349.516c.07.155.09.286.045.385-.054.118-.195.18-.43.18-.425 0-.765-.185-1.133-.538-.072-.07-.312-.318-.363-.366-.116-.109-.197-.159-.267-.159h-1.896c-.105 0-.215-.002-.333-.005a28.79 28.79 0 01-.563-.022c-.887-.04-1.217-.04-1.555.029-.436.087-.652.29-.652.66 0 .322-.102.71-.296 1.196-.067.167-.142.34-.24.553-.55 1.21-.53 1.162-.53 1.373 0 .525-.036.89-.175 1.26-.205.545-.593.858-1.209.858-.709 0-1.026.178-1.467.667-.274.305-.405.423-.61.526-.82.41-1.6.978-1.6 1.206 0 .356.417.536 1.155.283.246-.085.354-.113.83-.225a4.02 4.02 0 00.692-.209c.244-.103.466-.242.693-.442a12.9 12.9 0 011.504-1.097c.272-.17.505-.298.672-.37a.727.727 0 01.211-.064c.062-.005.101.02.101.072 0 .08.003.06-.06.518l-.024.19c-.028.228-.04.398-.033.526.007.146.04.219.093.219.159 0 .657.304.978.613.425.41.519.775.132.991-.358.2-.599.17-.756-.005a.819.819 0 01-.06-.083v1.26h2.04c.258 0 .303-.148.303-.742 0-.204.058-.337.155-.413a.271.271 0 01.16-.061.12.12 0 01.04.057 9.429 9.429 0 00.21.456c.033.065.064.126.094.18.089.161.163.267.214.299.04.025.063-.017.063-.18 0-.195.03-.376.094-.652.095-.402.106-.465.088-.58-.023-.144-.127-.212-.359-.212a.842.842 0 01-.588-.201c-.025-.02-.135-.124-.163-.145-.088-.066-.163-.062-.297.036-.211.156-.308.178-.405.078-.05-.051-.307-.496-.419-.66a1.128 1.128 0 01-.162-.356c-.075-.291-.042-.602.06-.902a1.952 1.952 0 01.101-.242c.04-.005.053.002.07.013a8.06 8.06 0 00.57.31c.226.107.4.17.498.17h.916l.321-1.718-.712-.288-.246-.1a2.577 2.577 0 01-.258-.176.403.403 0 01-.12-.128c-.024-.055.016-.087.1-.087.127 0 .4-.22.506-.402.11-.188-.022-.227-.497-.026-.27.115-.463.25-.596.408-.133.157-.16.224-.256.546-.058.192-.118.262-.275.262-.253 0-.674-.66-.783-1.256-.14-.765.21-1.264 1.128-1.264.867 0 1.666.119 2.88.384 1.616.352 1.781.383 2.285.383.334 0 .523.094.602.279.059.138.057.271.018.6-.059.508-.017.71.246.83 1.037.47 2.381.877 3.154.877a.496.496 0 01.154.215c.049.107.234.613.273.709.25.61.52.923.926.923.218 0 .3-.076.288-.233-.01-.124-.045-.217-.207-.586a7.28 7.28 0 01-.073-.17c-.169-.413-.196-.672-.025-.85.33-.347.978-.35 1.94-.014.192-.557.01-.827-.553-.827-.184 0-.417-.027-.597-.07-.216-.053-.335-.12-.308-.208.032-.106.315-.338.641-.546.12-.076.229-.138.312-.177a2.144 2.144 0 00-.12-.048z"/><path fill="#fff" stroke="#979797" stroke-width=".15" d="M3.869 16.108l.126.337.077-.056.375.097c-.116.422-.424.648-.881.648-.534 0-.533 0-.644.194a1.21 1.21 0 01-.092.142.645.645 0 01-.299.216c-.048.02-.359.124-.486.171a1.672 1.672 0 00-.395.218c-.03.02-.161.117-.198.143-.247.173-1.097.241-1.372.241l.844-.241c.18 0 .115-.176.302-.307l.04-.028.117-.085c.017-.012.031-.023.04-.028.168-.12.31-.2.483-.265.137-.051.442-.154.478-.168a.268.268 0 00.136-.094.858.858 0 00.064-.098c.199-.348.321-.388.982-.388l.378-.275-.13.046c-.425.143-.731.215-.932.215-.12 0-.2-.026-.359-.095l-.005-.002c-.198-.086-.251-.085-.393.045a3.15 3.15 0 00-.055.051c-.111.108-.434.463-.425.454-.175.182-.749.274-.914.274l.447-.382a.141.141 0 00.044-.023.695.695 0 00.085-.072l.054-.054a14.8 14.8 0 01.437-.465l.06-.057c.277-.254.492-.258.813-.118l.01.005c.11.047.154.061.2.061zm1.558-.032l.388.003c-.004.554-1.021 1.03-1.49 1.164l.667-.47zm2.35-1.232l.36.14c-.321.776-.612 1.256-.897 1.454-.072.05-.15.095-.24.139a3.82 3.82 0 01-.234.105 5.475 5.475 0 00-.068.03c-.176.079-.223.12-.223.168l-1.17.208c0-.246.928-.583 1.23-.72a5.83 5.83 0 01.12-.05l.027-.013c.058-.025.102-.045.144-.065.073-.036.134-.071.189-.109zm-5.159-.459c.193.059.424.089.693.089h.78a.72.72 0 01.488.19c.03.026.103.096.11.101l1.145.3-.11.362c-.22-.063-.41-.116-.57-.16a.32.32 0 01.15.178l-.364.129a.06.06 0 00.016.022l-.088-.01c-.12 0-.303.034-.543.104a2.324 2.324 0 00-.452.173l-.045.026-.124.074a.635.635 0 01-.045.024c-.073.033-.431.033-1.075 0 .267-.063.508-.418.782-.355.091.02.113.02.129.013l.054-.032c.043-.026.1-.06.138-.08a2.66 2.66 0 01.528-.205c.3-.087.542-.131.722-.12a3.15 3.15 0 00-.295-.068c-.086 0-.886-.314-.955-.375a37.32 37.32 0 00-1.069-.38zm5.2-1.177c.436 0 .682.073.692.33l-.387.014a.098.098 0 00.03.068l-.02-.006a90.538 90.538 0 00-1.06-.258c.437.082.342.063.207.034l-.074-.017a.46.46 0 01-.104-.028l.058-.023.083-.03c.163-.055.341-.084.576-.084zm.485-.66c.436 0 .681.072.691.329l-.387.015a.098.098 0 00.03.068l-.02-.007a1.229 1.229 0 00-.314-.028c-.127 0-.376-.077-.746-.23l.03-.01.058-.023a1.743 1.743 0 01.658-.115zm.097-.85c.435 0 .68.073.691.33l-.387.014a.098.098 0 00.03.069l-.02-.007a1.229 1.229 0 00-.314-.029 1.35 1.35 0 00-.515.088l-.063.025c-.064.024-.272 0-.328 0 .448-.327.75-.49.906-.49zm.29-.66c.436 0 .682.073.692.33l-.388.014a.098.098 0 00.031.068l-.021-.006a1.229 1.229 0 00-.313-.029 1.35 1.35 0 00-.515.088l-.063.025a.453.453 0 01-.168.035l-.451.135c-.003 0 .591-.478.619-.487.162-.055.343-.173.578-.173zm.194-.66c.436 0 .681.073.691.33l-.387.014a.098.098 0 00.031.068c.002.002-.005-.001-.021-.006a1.229 1.229 0 00-.314-.03c-.127 0-.375-.076-.746-.228l.002-.001.027-.01.06-.023.082-.03a1.74 1.74 0 01.575-.085zm.91-.892v.377h-.51c-.439 0-.49.022-.526.106l-.013.03-.012.026a.59.59 0 01-.043.073c.012-.408.21-.612.595-.612zm-.429-.618c.436 0 .681.073.691.33l-.387.014a.098.098 0 00.031.068c.002.003-.005 0-.021-.006a1.229 1.229 0 00-.314-.029c-.19 0-.66-.033-.717-.033-.275.148-.413.197-.413.146 0-.033.128-.147.384-.342l.03-.01.058-.023a1.743 1.743 0 01.658-.115z"/><path fill="#fff" stroke="#979797" stroke-width=".15" d="M25.216 2.81c-.365-.172-.836-.257-1.411-.257-.864 0-.207-.77-1.451-.77s-.874-.77-2.575 0c-1.134.513-1.8.627-1.996.343-.86-.285-1.29-.285-1.29 0 0 .427.799.965-.444.965s-1.623 1.07-.811 2.284 1.255 2.723 1.255 2.723.969 1.063 0 1.063c-.968 0-1.419-1.063-1.762-1.063h-1.896c-1.499 0-2.298-.66-3.396.888-1.098 1.55-.797 2.376-.797 2.92s-.01 2.095-1.36 2.095-1.805.9-2.514 1.255c-.709.354-1.188.897-1.188 1.167s.301.61 1.188.305 1.484-.23 2.223-.88S9.44 14.073 9.44 14.37s-.269 1.476 0 1.476 1.927 1.097 1.098 1.56c-.83.464-.83-.463-.83 0v1.216h2.066c.327 0 .327-.314.327-.765 0-.45.291-.45.291-.45s.645 1.553.645.788c0-.765.534-1.468-.201-1.468s-.65-.61-1.062-.305c-.414.305-.343.076-.79-.576-.446-.651 0-1.476 0-1.476s.826.505 1.117.505h.936l.329-1.755-.974-.394s-.582-.348-.29-.348c.29 0 1.116-.946 0-.473-1.118.473-.67 1.215-1.118 1.215-.446 0-1.693-2.474.345-2.474 2.037 0 3.91.768 5.165.768s.088 1.358.856 1.706c.767.347 2.253.88 3.164.88.295.237.45 1.846 1.353 1.846s-.487-1.335 0-1.846c.325-.341.972-.341 1.939 0 .209-.587.02-.88-.569-.88-.355 0-.926-.105-.882-.248.066-.213 1.258-.982 1.081-.682 0 0-.922-.535-1.569 0-.646.536.382.682-.979.682-1.36 0-1.386-.208-1.386-.682 0-.473.766-3.078.65-3.523-.117-.444.646.221 1.704.318 1.058.097 1.95-.888 1.95-.888s.823 1.206 1.411.888c.588-.318 1.072-.559 1.072-.723 0-.165.57-.63.383-.826-.187-.196-.217-1.153-.52-.576s-1.691-.508-1.832-.332c-.14.177-.158.61-.678.61s-.71.316-2.018.158c-1.308-.157-1.052-.186-1.844-.768-.793-.58-1.221-.841-1.221-1.154 0-.313.664-1.032.943-.614.278.417.101.614.806.614.705 0 2.047-.082 2.047.287s.092 1.203.587 1.035c.494-.168 1.442-.918.295-1.322-1.147-.405-1.764-1.234-.882-1.234s.936.255 1.45.255c.515 0 1.112.07 1.112-.368s.426-.657.426-.937c0-.187-.042-.28-.126-.28z"/><path fill="#000" d="M22.38 2.83c.087 0 .165.037.218.096a.287.287 0 00-.315.282c0 .071.028.136.073.186a.284.284 0 01-.266-.28c0-.157.13-.284.29-.284zm.776-.566a.287.287 0 01.29.3.288.288 0 00-.386.247.278.278 0 01-.195-.264c0-.156.13-.283.29-.283z"/><ellipse cx="10.851" cy="18.915" fill="#fff" stroke="#979797" stroke-width=".15" rx="1.066" ry="1"/><ellipse cx="12.983" cy="13.821" fill="#fff" stroke="#979797" stroke-width=".15" rx="1.066" ry="1"/><ellipse cx="22.913" cy="14.623" fill="#fff" stroke="#979797" stroke-width=".15" rx="1.211" ry="1.226"/></g></g></svg>