<svg xmlns="http://www.w3.org/2000/svg" viewBox="0 0 32 24"><mask id="mantine-remz98i29" fill="#fff"><path fill-rule="evenodd" d="M0 0h32v24H0z"/></mask><g fill="none" fill-rule="evenodd" mask="url(#mantine-remz98i29)"><path fill="#73be4a" d="M0 0h32v24H0z"/><path fill="#af0100" d="M0 0h32v16H0z"/><path fill="#f7fcff" d="M0 0h6v24H0z"/><g fill="#b20000"><g fill-rule="nonzero"><path d="M1.897.057l1.415 2.179-1.415 2.08-1.453-2.08zM1.89.975L1.056 2.23l.835 1.196.815-1.196zM2 2.065v.516h-.25v-.516zm-.863 2.121l.675.99-.675.946-.693-.945zm.011.517l-.315.465.316.45.312-.425zm1.489-.517l.675.99-.675.946-.693-.945zm.011.517l-.315.465.316.45.312-.425z"/><path d="M3.637 4.186l.675.99-.675.946-.693-.945zm.011.517l-.315.465.316.45.312-.425zm1.489-.517l.675.99-.675.946-.693-.945zm.011.517l-.315.465.316.45.312-.425zM4.397.057l1.415 2.179-1.415 2.08-1.453-2.08zM4.39.975L3.556 2.23l.835 1.196.815-1.196zm.109 1.09v.516h-.25v-.516zM1.656 12.406L.037 9.687l.426-.27 1.174 1.97 1.432-2.631 1.468 2.638 1.037-1.721.424.272L4.52 12.4 3.074 9.8z"/></g><path d="M.75.516h.269v.516H.75zM3 0h.269v.516H3zm2.25.516h.269v.516H5.25zM1 3.613v.516H.75v-.516zm2.25 0v.516H3v-.516zm2.25 0v.516h-.25v-.516zM1 6.194v.516H.75v-.516zm2.25 0v.516H3v-.516zm2.25 0v.516h-.25v-.516z"/><path d="M4.25 5.88l1.379 2.156-1.048 1.887-.664-.968.525-1.09-.193-.444L3.13 9.24v.215l-.067-.108-.066.108V9.24l-1.12-1.818-.192.443.524 1.09-.664.969L.496 8.036l1.38-2.156 1.186 1.88zm-1 7.281v.516H3v-.516zm0-1.29v.516H3v.258h-.25v-.516H3v-.258zm.25.258v.516h-.25v-.516zm-1-.258v.516h-.25v-.516zm1.5 0v.516h-.25v-.516zm-3.25 0v.516H.5v-.516zm5 0v.516H5.5v-.516zM3 11.355v.516h-.25v-.516zm.5 0v.516h-.25v-.516zm-.25-.774v.516H3v-.516z"/><g fill-rule="nonzero"><path d="M1.897 23.943l1.415-2.179-1.415-2.08-1.453 2.08zm-.006-.918l-.835-1.254.835-1.196.815 1.196zM2 21.935v-.516h-.25v.516zm-.863-2.121l.675-.99-.675-.946-.693.945zm.011-.517l-.315-.465.316-.45.312.425zm1.489.517l.675-.99-.675-.946-.693.945zm.011-.517l-.315-.465.316-.45.312.425z"/><path d="M3.637 19.814l.675-.99-.675-.946-.693.945zm.011-.517l-.315-.465.316-.45.312.425zm1.489.517l.675-.99-.675-.946-.693.945zm.011-.517l-.315-.465.316-.45.312.425zm-.751 4.646l1.415-2.179-1.415-2.08-1.453 2.08zm-.006-.918l-.835-1.254.835-1.196.815 1.196zm.109-1.09v-.516h-.25v.516zM1.656 11.594L.037 14.313l.426.27 1.174-1.97 1.432 2.631 1.468-2.638 1.037 1.721.424-.272L4.52 11.6l-1.446 2.6z"/></g><path d="M.75 23.484h.269v-.516H.75zM3 24h.269v-.516H3zm2.25-.516h.269v-.516H5.25zM1 20.387v-.516H.75v.516zm2.25 0v-.516H3v.516zm2.25 0v-.516h-.25v.516zM1 17.806v-.516H.75v.516zm2.25 0v-.516H3v.516zm2.25 0v-.516h-.25v.516z"/><path d="M4.25 18.267l1.379-2.156-1.048-1.886-.664.968.525 1.09-.193.443-1.12-1.818v-.214l-.067.107-.066-.107v.214l-1.12 1.818-.192-.443.524-1.09-.664-.968L.496 16.11l1.38 2.156 1.186-1.879z"/></g></g></svg>