<svg xmlns="http://www.w3.org/2000/svg" viewBox="0 0 32 24"><mask id="mantine-24moierx1" fill="#fff"><path fill-rule="evenodd" d="M0 0h34v24H0z"/></mask><g fill="none" fill-rule="evenodd" mask="url(#mantine-24moierx1)"><path fill="#43b764" d="M0 0h32v12H0z"/><path fill="#b4d7f4" d="M0 12h32v12H0z"/><path fill="#be0027" d="M0 0l33 12L0 24z"/><path fill="#f3e294" fill-rule="nonzero" d="M9.293 6c.778.192 1.477.427 2.098.706a10.103 10.103 0 01-.32-.512c-.333-.58.705.32 1.115.917l.003.004c.669.387 1.219.839 1.651 1.355V7.296c.388.133.61 1.388.725 2.332.085.19.158.385.219.588.15-.403.435-.832.692-.461.247.356.08 1.723-.502 4.099l.067-.272a8.747 8.747 0 01-.027.248c.88-.56.971-2.49.971-1.047 0 .781-.413 1.558-1.239 2.329a7.354 7.354 0 01-.263.742c1.043-.329 1.677-1.344 1.502-.17-.103.697-.789 1.112-2.057 1.244l-.157.237-.031.038a8.27 8.27 0 01-.351.336l-.067.026c.416-.168.735-.377 1.175-.377.44 0-1.393.502-1.73.866-.3.324-.195.405-.695.419a5.222 5.222 0 01-1.795.578c.018.049.034.101.048.156H7.693c.018-.066.038-.13.06-.19a5.164 5.164 0 01-1.575-.541h-.043c-.738 0-.566-.059-.902-.422-.337-.364-2.17-.866-1.73-.866.44 0 .759.209 1.175.377.097.04.22.085.367.137a7.6 7.6 0 01-.54-.499l-.032-.038-.143-.215c-1.424-.104-2.191-.526-2.301-1.266-.178-1.198.485-.117 1.566.19l.2.054a6.326 6.326 0 01-.207-.534c-1.04-.864-1.56-1.735-1.56-2.611 0-1.463.094.543 1.012 1.07-.582-2.375-.749-3.742-.502-4.098.37-.535.8.593.8.91 0 .318.177-3.143.836-3.369v1.292c0 .061.027.084.075.078a5.71 5.71 0 011.365-1.275 4.08 4.08 0 00.214-.28c.41-.596 1.448-1.497 1.116-.917-.129.224-.292.467-.422.67.699-.35 1.51-.637 2.43-.864l.133.53c-.805.2-1.517.444-2.138.735.365.053.775.193.996.193.347 0-.657.454-1.165.454s-.92.214-1.168.214c-.248 0 .927.36.464.704-.383.284-.973-.045-1.48.3-.18.258-.33.53-.451.82.123.158.595-.025.704-.195.16-.25 1.1-.004.383.715-.466.467-1.11.754-1.443.96l-.03.292c.094-.098.172-.341.417-.208.095.051.148.055.174.05l.012-.004-.006.009c-.024.041-.068.174-.068.552 0 .314-.072.619-.162.867l-.004.01.011-.01c.196-.183.404-.24.404.121 0 .624-.249.803-.249 1.431s.249 1.524.249 1.334c0-.19.301-1.412.472-.86.17.55.18 1.556.5 1.954.234.29 1.064.97 1.594 1.317.31.11.63.185.955.226.143-.155.32-.26.53-.318v.11a26.36 26.36 0 00-.036-2.118l-.031-.034c-.063-.054-.153-.081-.271-.081-.4 0-1.278-.342-1.278-.834.436.198.716.247.837.148.183-.148-1.182-1.025-1.01-1.447.428.379.688.568.78.568.137 0-.231-.884 0-.726s.871 1.246.871 1.605c0 .171.03.407.09.707l.01.048-.002-.018a11.961 11.961 0 00-.115-1.105c-.289-1.8-.299-3.646.102-4.628-.2-.122-.346-.28-.346-.46.437.177.716.222.838.133.183-.133-1.182-.922-1.01-1.302.428.34.688.511.78.511.137 0-.231-.795 0-.653s.871 1.12.871 1.444c.249-.3.538-.588.69-.66.3-.141-.178.654 0 .654.12 0 .457-.17 1.014-.512.224.38-1.551 1.17-1.314 1.302.159.089.522.045 1.09-.133 0 .443-1.142.75-1.662.75a.693.693 0 00-.353.073l-.025.019a8.827 8.827 0 00-.051 1.05c.26-.334.584-.663.748-.741.3-.142-.178.653 0 .653.12 0 .457-.17 1.014-.511.224.38-1.552 1.169-1.314 1.302.159.088.522.044 1.09-.133 0 .393-.904.68-1.47.738.033.323.075.65.127.976.056.346.096.743.124 1.18.013.192.022.387.03.582a2.89 2.89 0 00.043-.445c0-.36.64-1.448.872-1.605.23-.158-.138.726 0 .726.091 0 .35-.19.779-.569.172.422-1.193 1.3-1.01 1.448.122.098.401.049.838-.148 0 .492-.879.833-1.278.833a.442.442 0 00-.238.057c.01.278.013.555.012.826l-.005.416c.226.06.414.173.565.34.242-.016.482-.055.718-.112.479-.266 1.538-1.115 1.807-1.449.32-.398.33-1.403.5-1.955.17-.551.473.67.473.86 0 .19.248-.705.248-1.333s-.248-.807-.248-1.43c0-.362.207-.305.403-.123l.01.011-.003-.01a2.692 2.692 0 01-.158-.733l-.004-.134c0-.378-.044-.511-.068-.552l-.006-.009c.02.01.072.015.186-.046.36-.196.36.425.58.196.218-.23-.919-.521-1.636-1.24-.717-.719.223-.966.383-.715.16.25 1.117.533.561-.302-.555-.834-1.324-.279-1.787-.623-.464-.343.71-.704.463-.704s-.66-.214-1.168-.214c-.508 0-1.512-.454-1.165-.454.26 0 .784-.195 1.184-.215-.61-.28-1.308-.518-2.096-.712z"/></g></svg>