<svg xmlns="http://www.w3.org/2000/svg" xmlns:xlink="http://www.w3.org/1999/xlink" viewBox="0 0 32 24"><defs><mask id="mantine-zobep41u5" fill="#fff"><path fill-rule="evenodd" d="M0 0h32v24H0z"/></mask><mask id="mantine-cyoo3xdec" fill="#fff"><use fill-rule="evenodd" xlink:href="#mantine-2u1gm796t"/></mask><path id="mantine-2u1gm796t" d="M0 0h32v24H0z"/></defs><g fill="none" fill-rule="evenodd" mask="url(#mantine-zobep41u5)"><use fill="#f7fcff" xlink:href="#mantine-2u1gm796t"/><g fill="#e31d1c"><g mask="url(#mantine-cyoo3xdec)"><path d="M14 0h4v10h14v4H18v10h-4V14H0v-4h14z"/></g><g mask="url(#mantine-cyoo3xdec)"><path d="M9.999 17.222L12.2 17v2c-1.468-.092-2.201-.125-2.201-.098 0 .026.067.726.201 2.098h-2l.16-2H6.2v-2l2.16.222L8.2 15h2zm0-12L12.2 5v2c-1.468-.092-2.201-.125-2.201-.098s.067.726.201 2.098h-2l.16-2H6.2V5l2.16.222L8.2 3h2zm14 0L26.2 5v2c-1.468-.092-2.201-.125-2.201-.098s.067.726.201 2.098h-2l.16-2H20.2V5l2.16.222L22.2 3h2zm0 12L26.2 17v2c-1.468-.092-2.201-.125-2.201-.098 0 .026.067.726.201 2.098h-2l.16-2H20.2v-2l2.16.222L22.2 15h2z"/></g></g></g></svg>