<svg xmlns="http://www.w3.org/2000/svg" xmlns:xlink="http://www.w3.org/1999/xlink" viewBox="0 0 32 24"><defs><mask id="mantine-66wcvuchn" fill="#fff"><path fill-rule="evenodd" d="M0 0h32v24H0z"/></mask><mask id="mantine-7jc1lu6xg" fill="#fff"><use fill-rule="evenodd" xlink:href="#mantine-x5cy5gjb4"/></mask><path id="mantine-x5cy5gjb4" d="M0 0h32v24H0z"/></defs><g fill="none" fill-rule="evenodd" mask="url(#mantine-66wcvuchn)"><use fill="#c51918" xlink:href="#mantine-x5cy5gjb4"/><g fill="#ffdc17" mask="url(#mantine-7jc1lu6xg)"><path d="M15.99 4l.38 2.012c.212.014.422.038.628.073l.837-1.871-.097 2.046c.202.061.4.133.593.215l1.25-1.63-.571 1.97c.182.106.357.221.526.345l1.599-1.302-1.016 1.79c.151.143.295.295.43.453l1.861-.902-1.406 1.51c.114.173.218.353.314.539l2.022-.453-1.72 1.15c.07.193.129.392.178.594l2.075.022-1.944.725c.023.213.035.429.035.647l-.001-.029 2.018.498-2.062.26c-.025.207-.061.41-.108.61l1.847.945L21.591 14a5.874 5.874 0 01-.247.567l1.578 1.343-1.962-.685a5.96 5.96 0 01-.372.495l1.224 1.669-1.751-1.115c-.152.14-.311.273-.477.397l.804 1.903-1.443-1.485a5.98 5.98 0 01-.557.278l.34 2.034-1.06-1.773a5.983 5.983 0 01-.607.142l-.142 2.056-.617-1.968a6.129 6.129 0 01-.625.001l-.617 1.967-.143-2.053a5.984 5.984 0 01-.61-.142l-1.056 1.77.338-2.028a5.98 5.98 0 01-.56-.279l-1.439 1.48.8-1.895a6.002 6.002 0 01-.482-.4l-1.741 1.11 1.218-1.66a5.96 5.96 0 01-.378-.5l-1.95.68 1.568-1.333a5.874 5.874 0 01-.251-.574l-2.054.215 1.834-.939a5.869 5.869 0 01-.11-.617l-2.046-.26L10 11.909c0-.211.013-.42.036-.627l-1.93-.72 2.06-.022c.05-.205.11-.406.181-.603L8.64 8.796l2.008.45a5.94 5.94 0 01.319-.546L9.568 7.199l1.851.897a5.99 5.99 0 01.436-.457l-1.011-1.781 1.592 1.296c.17-.124.347-.24.53-.346l-.57-1.963 1.248 1.625a5.97 5.97 0 01.596-.215l-.097-2.041.837 1.869a5.92 5.92 0 01.63-.072zm-.044 3.417c-2.505 0-4.536 2.014-4.536 4.499 0 2.484 2.03 4.499 4.536 4.499 2.505 0 4.536-2.015 4.536-4.5 0-2.484-2.03-4.498-4.536-4.498zm1.177 7.803l-.064.023c-.34.114-.705.175-1.084.175-.508 0-.99-.11-1.424-.309.015-1.182.414-2.238 1.2-3.173.657.848 1.11 2.023 1.372 3.284zm.743-.37l-.01.007a3.43 3.43 0 01-.185.113l.03.148c-.26-1.397-.782-2.49-1.518-3.358l.172-.13a4.55 4.55 0 01.069-.05c.91 1.043 1.482 1.939 1.442 3.27zm-2.55-3.321l.078.064c-.837.951-1.294 2.023-1.372 3.213a3.187 3.187 0 01-.296-.229c.316-1.259.838-2.297 1.59-3.048zm1.617-.17l-.15-.067c1.214.492 1.9 1.85 1.942 2.748-.099.13-.206.254-.32.37-.064-1.18-.568-2.08-1.472-3.05zm-2.034-.004l-.047.046a5.968 5.968 0 00-1.604 2.667 2.889 2.889 0 01-.078-.106c.062-.894.646-2.173 1.83-2.652zm4.225-.728c.18.418.28.878.28 1.362 0 .495-.104.966-.293 1.391-.237-.846-.778-1.706-1.971-2.228a5.363 5.363 0 012.154-.536zm-6.304.022c.786.09 1.406.28 1.87.502-1.186.503-1.653 1.314-1.887 2.141a3.414 3.414 0 01-.257-1.303c0-.442.084-.864.236-1.252zm3.155-2.09c.957 0 1.823.393 2.445 1.025-.98.113-1.81.359-2.483.74-.6-.344-1.412-.577-2.433-.71a3.412 3.412 0 012.471-1.054z"/></g></g></svg>