<svg xmlns="http://www.w3.org/2000/svg" xmlns:xlink="http://www.w3.org/1999/xlink" viewBox="0 0 32 24"><defs><mask id="mantine-nj8lr5nko" fill="#fff"><path fill-rule="evenodd" d="M0 0h32v24H0z"/></mask><mask id="mantine-rbb3zf8ek" fill="#fff"><use fill-rule="evenodd" xlink:href="#mantine-4pr228xpi"/></mask><path id="mantine-4pr228xpi" d="M0 0h32v24H0z"/></defs><g fill="none" fill-rule="evenodd" mask="url(#mantine-nj8lr5nko)"><use fill="#3d58db" xlink:href="#mantine-4pr228xpi"/><path fill="#f7fcff" d="M8 11l-.817 2.944.008-3.055-1.581 2.614.831-2.94-2.228 2.091 1.594-2.606-2.709 1.412 2.238-2.08-2.99.63 2.717-1.4-3.049-.2 2.993-.615L2.125 6.78l3.048.216-2.5-1.755 2.876 1.03-1.934-2.365 2.492 1.768-1.225-2.8 1.923 2.375-.424-3.026 1.21 2.806L8 2l.408 3.028 1.21-2.806-.423 3.026 1.923-2.375-1.225 2.8 2.492-1.768-1.934 2.365 2.876-1.03-2.5 1.755 3.048-.216-2.882 1.016 2.993.614-3.049.201 2.717 1.4-2.99-.63 2.238 2.08-2.71-1.412 1.595 2.606-2.228-2.09.831 2.94-1.58-2.615.007 3.055z" mask="url(#mantine-rbb3zf8ek)"/><g fill-rule="nonzero"><path fill="#fff" d="M-.782 24.745l34.04-23.53v7.67z" mask="url(#mantine-rbb3zf8ek)"/><path fill="#e2ae57" d="M-.782 24.745l34.04-29.53v7.67z" mask="url(#mantine-rbb3zf8ek)"/></g></g></svg>