<svg xmlns="http://www.w3.org/2000/svg" xmlns:xlink="http://www.w3.org/1999/xlink" viewBox="0 0 16 12"><defs><path id="a" d="M0 0h16v12H0z"/><path id="c" d="M0 0h10v6H0z"/></defs><g fill="none" fill-rule="evenodd"><mask id="b" fill="#fff"><use xlink:href="#a"/></mask><g mask="url(#b)"><path fill="#C51918" fill-rule="nonzero" d="M0 0h16v11a1 1 0 01-1 1H1a1 1 0 01-1-1V0z"/><path fill="#C51918" fill-rule="nonzero" d="M0 0h16v12H0z"/><path fill="#017A38" stroke="#017A38" d="M12.5 3.5v5h-9v-5z"/><g transform="translate(3 3)"><mask id="d" fill="#fff"><use xlink:href="#c"/></mask><path fill="#F9FAFA" fill-rule="nonzero" d="M5.016 3.231c-.008 1.533 1.199 2.35 1.199 2.35-1.377.162-2.293-1.086-2.293-2.335 0-1.248 1.248-2.28 2.293-2.745 0 0-1.19 1.197-1.199 2.73z" mask="url(#d)"/></g></g></g></svg>
