<svg xmlns="http://www.w3.org/2000/svg" xmlns:xlink="http://www.w3.org/1999/xlink" viewBox="0 0 16 12"><defs><path id="a" d="M0 0v12h11L6 6h5z"/><path id="c" d="M0 0v12h11L6 6h5z"/><path id="e" d="M0 0v12h11L6 6h5z"/></defs><g fill="none" fill-rule="evenodd"><path fill="#FFF" fill-rule="nonzero" d="M0 0h16v12H0z"/><path fill="#DD0C39" stroke="#4857A1" d="M.5.842L9.04 5.5H4.931l5 6H.5z"/><g><mask id="b" fill="#fff"><use xlink:href="#a"/></mask><path fill="#F7FCFF" fill-rule="nonzero" d="M2.915 10.005l-.613.795-.028-1.003-.963.283.567-.828-.946-.337.946-.337-.567-.828.963.283.028-1.004.613.796.612-.796.029 1.004.963-.283-.567.828.945.337-.945.337.567.828-.963-.283-.029 1.003z" mask="url(#b)"/></g><g><mask id="d" fill="#fff"><use xlink:href="#c"/></mask><path fill="#F7FCFF" fill-rule="nonzero" d="M2.9 4.07l-.32.415-.015-.524-.503.148.296-.433-.493-.176.493-.176-.296-.433.503.148.015-.524.32.416.32-.416.015.524.503-.148-.296.433.493.176-.493.176.296.433-.503-.148-.015.524z" mask="url(#d)"/></g><g><mask id="f" fill="#fff"><use xlink:href="#e"/></mask><path fill="#F9FAFA" fill-rule="nonzero" d="M2.773 3.953C2.768 5.066 3.4 5.66 3.4 5.66c-.72.117-1.2-.79-1.2-1.696 0-.907.653-1.456 1.2-1.794 0 0-.623.67-.627 1.783z" mask="url(#f)" transform="rotate(-90 2.8 3.92)"/></g></g></svg>
