<svg xmlns="http://www.w3.org/2000/svg" xmlns:xlink="http://www.w3.org/1999/xlink" viewBox="0 0 32 24"><defs><mask id="mantine-8vx86xh8j" fill="#fff"><path fill-rule="evenodd" d="M0 0h32v24H0z"/></mask><mask id="mantine-5f1e1yj4t" fill="#fff"><use fill-rule="evenodd" xlink:href="#mantine-tuq2ij3pj"/></mask><mask id="mantine-z4iu5xsnc" fill="#fff"><path fill-rule="evenodd" d="M0 0h12v10H0z"/></mask><path id="mantine-tuq2ij3pj" d="M0 0h32v24H0z"/></defs><g fill="none" fill-rule="evenodd" mask="url(#mantine-8vx86xh8j)"><use fill="#2e42a5" xlink:href="#mantine-tuq2ij3pj"/><g fill="#f7fcff" mask="url(#mantine-5f1e1yj4t)"><path d="M22.8 17.49l.332 1.013 1.013.022-.807.648.293 1.027-.831-.613-.831.613.293-1.027-.807-.648 1.013-.022zm3.11-2.396l.333 1.013 1.012.022-.807.648.293 1.026-.83-.612-.832.612.294-1.026-.807-.648 1.012-.022zm-6.22 0l.332 1.013 1.012.022-.807.648.294 1.026-.831-.612-.831.612.293-1.026-.807-.648 1.012-.022zM26.837 6.2l-.784 1.504h-2.442v.808h1.872l-.762 1.4h-1.11v2.797l1.827-2.879 2.365 4.095h-.966l-.337-.449h-2.14l-1.506 2.781v.154l-.042-.078-.04.078-.001-.154-1.504-2.78h-2.14l-.338.448h-.966l2.364-4.095 1.828 2.88V7.703h-2.442L18.789 6.2zm-1.351 5.31l-.526.807h.995zm-5.346 0l-.469.807h.995l-.526-.807zm-2.995-3.607l.332 1.014 1.012.022-.807.648.294 1.026-.831-.612-.831.612.293-1.026-.807-.648 1.012-.022zm11.31 0l.333 1.014 1.012.022-.807.648.293 1.026-.83-.612-.832.612.294-1.026-.807-.648 1.012-.022z"/></g><g mask="url(#mantine-5f1e1yj4t)"><path stroke="#fff" d="M-.5-.5h13v11h-13z"/><path fill="#f50100" d="M8 0h4v10H8z" mask="url(#mantine-z4iu5xsnc)"/><path fill="#2e42a5" d="M0 0h4v10H0z" mask="url(#mantine-z4iu5xsnc)"/><path fill="#f7fcff" d="M4 0h4v10H4z" mask="url(#mantine-z4iu5xsnc)"/></g></g></svg>