<svg xmlns="http://www.w3.org/2000/svg" viewBox="0 0 32 24"><mask id="mantine-ab59imeb9" fill="#fff"><path fill-rule="evenodd" d="M0 0h32v24H0z"/></mask><g fill="none" fill-rule="evenodd" mask="url(#mantine-ab59imeb9)"><path fill="#f7fcff" d="M0 0h32v24H0z"/><path fill="#c51918" d="M0 0h32v8H0z"/><path fill="#409100" d="M0 16h32v8H0z"/><g fill="#fb0"><path d="M15.996 15.685c1.323 0 2.494.137 3.514.413l-.184.657c-.957-.26-2.066-.39-3.33-.39-1.263 0-2.373.13-3.329.39l-.184-.657c1.02-.276 2.191-.413 3.513-.413zm2.184-.86a.582.582 0 01.156.454l.404.167c-.222.262-.468.37-.74.324s-.44-.225-.509-.538h.366c.125-.229.232-.365.323-.406zm-4.43-.068c.092.042.2.178.324.407h.366c-.068.313-.238.492-.51.538-.27.046-.517-.062-.74-.324l.405-.167a.582.582 0 01.156-.454zm2.149-.14c.084.054.172.203.263.448l.362.05c-.11.3-.304.454-.579.462-.275.008-.504-.133-.687-.424l.423-.109a.582.582 0 01.218-.427zm-4.942-2.583l.236.69.72.016-.574.442.209.7-.591-.418-.592.418.209-.7L10 12.74l.72-.015zm10.057 0l.237.69.72.016-.574.442.209.7-.592-.418-.59.418.208-.7-.574-.442.72-.015zm-9.433-2.383l.236.69.72.016-.574.442.209.7-.591-.418-.591.418.208-.7-.574-.442.72-.015zm8.67 0l.237.69.72.016-.574.442.209.7-.592-.418-.59.418.208-.7-.574-.442.72-.015zm-6.728-1.838l.237.69.72.015-.574.442.208.7-.591-.417-.591.417.208-.7-.574-.442.72-.014zm4.815 0l.237.69.72.015-.574.442.208.7-.59-.417-.592.417.209-.7-.574-.442.72-.014zM16.02 7.2l.237.69.72.016-.574.442.208.7-.59-.418-.592.418.209-.7-.574-.442.72-.015z"/><path d="M16.013 10.362c.753.048 1.089.49 1.006 1.33-.058-.146-.192-.22-.401-.22s-.375.104-.495.312v1.201c0 .402.388.821 1.09 1.164.467.228.875.114 1.225-.343.186.438.516.717.988.836s.86.041 1.165-.231c-.308.74-.755 1.018-1.34.833-.584-.186-.893-.519-.925-1-.25.463-.621.666-1.114.611-.492-.055-.895-.44-1.207-1.156l-.024-1.422-.022 1.422c-.313.715-.716 1.1-1.208 1.156-.493.055-.864-.148-1.114-.61-.032.48-.34.813-.926.999-.584.185-1.03-.093-1.339-.833.305.272.693.35 1.165.23s.802-.397.988-.835c.35.457.758.571 1.226.343.701-.343 1.09-.762 1.09-1.164v-1.201c-.121-.208-.286-.312-.496-.312s-.343.074-.401.22c-.082-.84.253-1.282 1.005-1.327a.126.126 0 01.033-.002zm-.065.34c-.347 0-.556.147-.626.44.306 0 .514.067.626.2.227-.133.454-.2.682-.2-.107-.293-.335-.44-.682-.44z"/></g></g></svg>