<svg xmlns="http://www.w3.org/2000/svg" xmlns:xlink="http://www.w3.org/1999/xlink" viewBox="0 0 32 24"><defs><mask id="mantine-isedalkat" fill="#fff"><path fill-rule="evenodd" d="M0 0h32v24H0z"/></mask><mask id="mantine-g7zjr4rlq" fill="#fff"><use fill-rule="evenodd" xlink:href="#mantine-exo1juh1e"/></mask><path id="mantine-exo1juh1e" d="M0 0h32v24H0z"/></defs><g fill="none" fill-rule="evenodd" mask="url(#mantine-isedalkat)"><use fill="#ef0000" xlink:href="#mantine-exo1juh1e"/><g mask="url(#mantine-g7zjr4rlq)"><path fill="#2e42a5" d="M0 0h18v14H0z"/><path fill="#feffff" d="M10.211 1.6l.36 2.342 2.207-.86-.86 2.207 2.341.359-1.848 1.482 1.848 1.481-2.341.36.86 2.207-2.208-.86-.359 2.341-1.481-1.848-1.482 1.848-.359-2.341-2.207.86.86-2.208L3.2 8.611 5.049 7.13 3.2 5.648l2.342-.359-.86-2.207 2.207.86.359-2.342L8.73 3.449zM8.73 4.267a2.862 2.862 0 100 5.725 2.862 2.862 0 000-5.725zm0 .573a2.29 2.29 0 110 4.58 2.29 2.29 0 010-4.58z"/></g></g></svg>